<?xml version="1.0" standalone="no"?>
<!DOCTYPE svg PUBLIC "-//W3C//DTD SVG 20010904//EN"
 "http://www.w3.org/TR/2001/REC-SVG-20010904/DTD/svg10.dtd">
<svg version="1.0" xmlns="http://www.w3.org/2000/svg"
 width="300.000000pt" height="300.000000pt" viewBox="0 0 300.000000 300.000000"
 preserveAspectRatio="xMidYMid meet">
<metadata>
Created by potrace 1.11, written by Peter Selinger 2001-2013
</metadata>
<g transform="translate(0.000000,300.000000) scale(0.100000,-0.100000)"
fill="#000000" stroke="none">
<path d="M125 2636 c-39 -18 -79 -55 -102 -97 -17 -32 -18 -81 -18 -1034 0
-784 3 -1008 13 -1036 15 -44 66 -97 109 -115 27 -12 268 -14 1368 -14 1183 0
1340 2 1373 15 49 21 81 52 103 100 18 38 19 89 19 1040 l0 1001 -22 44 c-13
24 -40 58 -61 74 l-39 31 -1356 2 c-1115 2 -1362 0 -1387 -11z m1305 -1122 l0
-685 -357 3 c-350 3 -359 4 -418 27 -33 13 -71 31 -85 39 -48 29 -112 97 -138
147 -25 46 -27 60 -27 165 0 107 2 118 27 161 40 68 119 135 190 160 l60 22
-49 19 c-27 10 -68 34 -91 53 -125 108 -132 322 -13 458 37 42 134 93 201 106
25 5 192 9 373 10 l327 1 0 -686z m842 675 c118 -26 208 -90 256 -184 34 -66
43 -194 18 -259 -33 -85 -100 -150 -186 -179 l-45 -15 40 -11 c66 -18 142 -68
185 -122 53 -68 74 -141 67 -236 -10 -131 -74 -232 -187 -292 -101 -54 -158
-61 -517 -61 l-323 0 0 685 0 685 320 0 c199 0 339 -4 372 -11z"/>
<path d="M781 2129 c-105 -18 -184 -68 -224 -143 -17 -33 -22 -58 -22 -126 0
-77 3 -90 31 -140 33 -59 96 -110 162 -131 24 -8 141 -14 325 -16 l287 -5 0
286 0 286 -252 -1 c-139 -1 -277 -5 -307 -10z"/>
<path d="M710 1484 c-145 -39 -223 -134 -223 -274 0 -153 71 -247 223 -296 46
-14 104 -18 343 -22 l287 -4 0 306 0 306 -287 -1 c-220 0 -301 -4 -343 -15z"/>
<path d="M1668 2134 c-5 -4 -8 -133 -8 -286 l0 -280 293 4 c341 5 359 9 442
92 58 58 80 115 79 208 -1 77 -41 158 -98 197 -83 57 -124 64 -426 69 -151 2
-278 0 -282 -4z"/>
<path d="M1662 1198 l3 -303 235 -3 c129 -2 270 2 314 8 199 26 306 134 306
310 0 104 -39 176 -126 233 -75 50 -132 57 -446 57 l-288 0 2 -302z"/>
</g>
</svg>
